<svg xmlns="http://www.w3.org/2000/svg" xmlns:svg="http://www.w3.org/2000/svg" xmlns:xlink="http://www.w3.org/1999/xlink" version="1.0" height="1200.0000000000002pt" width="1710pt" viewBox="194.99999999999994 -193 1718 1206.0000000000002" ><defs><style type="text/css">
            @font-face {
                font-family: 'lt_regular';
                src: url('https://app.creately.com/diagram/assets/fonts/lato/lt-regular-webfont.woff2') format('woff2'),
                    url('https://app.creately.com/diagram/assets/fonts/lato/lt-regular-webfont.woff') format('woff');
                font-weight: normal;
                font-style: normal;
            }
            @font-face {
                font-family: 'noto_regular';
                src: url('https://app.creately.com/diagram/assets/fonts/noto/noto-regular.woff') format('woff'),
                     url('https://app.creately.com/diagram/assets/fonts/noto/noto-regular.woff2') format('woff2');
                font-weight: normal;
                font-style: normal;
            }
        p {
            margin: 0;
        }
        </style></defs><defs><style>
            span{ display: inline-block; }
        </style></defs><g id="npcSqhp1SIl"><g transform="translate(430 130)"><rect x="0" y="0" width="100" height="50" fill="rgb(113,191,133)" stroke="#71BF85" stroke-width="2" stroke-linecap="round" stroke-linejoin="round" stroke-dasharray="0 0"/></g><g transform="translate(457, 145.5) rotate(0, 23, 9.5)" width="46" height="19"><text text-decoration="none" x="0.5" fill="rgb(97, 114, 130)" font-size="10pt" font-family="lt_regular"  y="15">Product</text><text text-decoration="none" x="45.5" fill="#4b4b4b" font-size="10pt" font-family="noto_regular"  y="15"></text></g></g><g id="Dn5cVDcybVd"><g transform="translate(531.8750000000001 13.125000000000014)"><ellipse cx="68.5" cy="25" rx="68.5" ry="25" fill="rgb(108,107,110)" stroke="#6c6b6e" stroke-width="2" stroke-linecap="round" stroke-linejoin="round" stroke-dasharray="0 0"/></g><g transform="translate(541.8750000000001, 28.625000000000014) rotate(0, 58.5, 9.5)" width="117" height="19"><text text-decoration="none" x="1.5" fill="#ffffff" font-size="10pt" font-family="lt_regular"  y="15">Product_description</text><text text-decoration="none" x="115.5" fill="#4b4b4b" font-size="10pt" font-family="noto_regular"  y="15"></text></g></g><g id="b7fVTSNe4lt"><g><path d="M 480,130 L 542,53" fill="none" stroke="#A8A8A8" stroke-width="2" stroke-linecap="round" stroke-linejoin="round"/></g></g><g id="5tDHfzKayGf"><g transform="translate(580 79.99999999999996)"><ellipse cx="50" cy="25" rx="50" ry="25" fill="rgb(108,107,110)" stroke="#6c6b6e" stroke-width="2" stroke-linecap="round" stroke-linejoin="round" stroke-dasharray="0 0"/></g><g transform="translate(600, 95.49999999999994) rotate(0, 30, 9.5)" width="60" height="19"><text text-decoration="none" x="0.5" fill="#ffffff" font-size="10pt" font-family="lt_regular"  y="15">Unit_price</text><text text-decoration="none" x="59.5" fill="#4b4b4b" font-size="10pt" font-family="noto_regular"  y="15"></text></g></g><g id="Kq1XpoPe0EX"><g><path d="M 530,155 L 590,120" fill="none" stroke="#A8A8A8" stroke-width="2" stroke-linecap="round" stroke-linejoin="round"/></g></g><g id="hg19NXjwnGq"><g transform="translate(420.0000000000001 -20)"><ellipse cx="50" cy="25" rx="50" ry="25" fill="rgb(108,107,110)" stroke="#6c6b6e" stroke-width="2" stroke-linecap="round" stroke-linejoin="round" stroke-dasharray="0 0"/></g><g transform="translate(437.0000000000001, -4.5) rotate(0, 33, 9.5)" width="66" height="19"><text text-decoration="none" x="0.5" fill="#ffffff" font-size="10pt" font-family="lt_regular"  y="15">Product_ID</text><text text-decoration="none" x="65.5" fill="#4b4b4b" font-size="10pt" font-family="noto_regular"  y="15"></text></g></g><g id="zWAmEZK6MG4"><g><path d="M 480,130 L 470,30" fill="none" stroke="#A8A8A8" stroke-width="2" stroke-linecap="round" stroke-linejoin="round"/></g></g><g id="1IO0LYvpwvT"><g transform="translate(320.00000000000006 10)"><ellipse cx="50" cy="25" rx="50" ry="25" fill="rgb(108,107,110)" stroke="#6c6b6e" stroke-width="2" stroke-linecap="round" stroke-linejoin="round" stroke-dasharray="0 0"/></g><g transform="translate(326.50000000000006, 25.5) rotate(0, 43.5, 9.5)" width="87" height="19"><text text-decoration="none" x="1" fill="#ffffff" font-size="10pt" font-family="lt_regular"  y="15">Product_Name</text><text text-decoration="none" x="86" fill="#4b4b4b" font-size="10pt" font-family="noto_regular"  y="15"></text></g></g><g id="g67PunJsV98"><g><path d="M 430,155 L 390,58" fill="none" stroke="#A8A8A8" stroke-width="2" stroke-linecap="round" stroke-linejoin="round"/></g></g><g id="nrjvytMIhLW"><g transform="translate(239.99999999999994 60)"><ellipse cx="50" cy="25" rx="50" ry="25" fill="rgb(108,107,110)" stroke="#6c6b6e" stroke-width="2" stroke-linecap="round" stroke-linejoin="round" stroke-dasharray="0 0"/></g><g transform="translate(263.99999999999994, 75.5) rotate(0, 26, 9.5)" width="52" height="19"><text text-decoration="none" x="1" fill="#ffffff" font-size="10pt" font-family="lt_regular"  y="15">Quantity</text><text text-decoration="none" x="51" fill="#4b4b4b" font-size="10pt" font-family="noto_regular"  y="15"></text></g></g><g id="Gi1YJsdOLGs"><g><path d="M 430,155 L 340,85" fill="none" stroke="#A8A8A8" stroke-width="2" stroke-linecap="round" stroke-linejoin="round"/></g></g><g id="HfoLVCrlNh6"><g transform="translate(199.99999999999994 129.99999999999997)"><ellipse cx="50" cy="25" rx="50" ry="25" fill="rgb(108,107,110)" stroke="#6c6b6e" stroke-width="2" stroke-linecap="round" stroke-linejoin="round" stroke-dasharray="0 0"/></g><g transform="translate(213.49999999999994, 145.49999999999997) rotate(0, 36.5, 9.5)" width="73" height="19"><text text-decoration="none" x="1" fill="#ffffff" font-size="10pt" font-family="lt_regular"  y="15">Order_name</text><text text-decoration="none" x="72" fill="#4b4b4b" font-size="10pt" font-family="noto_regular"  y="15"></text></g></g><g id="IicntQgOljr"><g><path d="M 430,155 L 300,155" fill="none" stroke="#A8A8A8" stroke-width="2" stroke-linecap="round" stroke-linejoin="round"/></g></g><g id="NnavlXNUgPT"><g transform="translate(270.00000000000006 189.99999999999997)"><ellipse cx="50" cy="25" rx="50" ry="25" fill="rgb(108,107,110)" stroke="#6c6b6e" stroke-width="2" stroke-linecap="round" stroke-linejoin="round" stroke-dasharray="0 0"/></g><g transform="translate(302.50000000000006, 205.49999999999997) rotate(0, 17.5, 9.5)" width="35" height="19"><text text-decoration="none" x="0" fill="#ffffff" font-size="10pt" font-family="lt_regular"  y="15">Image</text><text text-decoration="none" x="35" fill="#4b4b4b" font-size="10pt" font-family="noto_regular"  y="15"></text></g></g><g id="83Pu15nJSjS"><g><path d="M 430,155 L 360,200" fill="none" stroke="#A8A8A8" stroke-width="2" stroke-linecap="round" stroke-linejoin="round"/></g></g><g id="dccDjjxYVMm"><g transform="translate(760 120)"><path d="M 120,35 L 60,70 L 0,35 L 60,0 L 120,35 L 120,35 Z" fill="rgb(45,148,228)" stroke="#2D94E4" stroke-width="2" stroke-linecap="round" stroke-linejoin="round" stroke-dasharray="0 0"/></g><g transform="translate(808, 145.5) rotate(0, 12, 9.5)" width="24" height="19"><text text-decoration="none" x="0.5" fill="rgb(97, 114, 130)" font-size="10pt" font-family="lt_regular"  y="15">Add</text><text text-decoration="none" x="23.5" fill="#4b4b4b" font-size="10pt" font-family="noto_regular"  y="15"></text></g></g><g id="PFmggAyjs60"><mask id="697b1" x="516" y="141" width="258" height="28" maskUnits="userSpaceOnUse"><rect x="516" y="141" width="258" height="28" fill="white" /><rect x="637" y="142.5" width="16" height="25" fill="black" /></mask><g mask="url(#697b1)"><path d="M 530,155 L 760,155" fill="none" stroke="#7E7E7E" stroke-width="2" stroke-linecap="round" stroke-linejoin="round"/></g><g transform="translate(640, 145.5)" width="10" height="19"><text text-decoration="none" x="0" fill="#4b4b4b" font-size="10pt" font-family="lt_regular"  y="15">N</text><text text-decoration="none" x="10" fill="#4b4b4b" font-size="10pt" font-family="noto_regular"  y="15"></text></g></g><g id="tskZgS7TOwC"><g transform="translate(1110 -30)"><ellipse cx="50" cy="25" rx="50" ry="25" fill="rgb(108,107,110)" stroke="#6c6b6e" stroke-width="2" stroke-linecap="round" stroke-linejoin="round" stroke-dasharray="0 0"/></g><g transform="translate(1119, -14.5) rotate(0, 41, 9.5)" width="82" height="19"><text text-decoration="none" x="0.5" fill="#ffffff" font-size="10pt" font-family="lt_regular"  y="15">Supplier_Type</text><text text-decoration="none" x="81.5" fill="#4b4b4b" font-size="10pt" font-family="noto_regular"  y="15"></text></g></g><g id="YhNQYyYt70e"><g><path d="M 1130,130 L 1140,18" fill="none" stroke="#A8A8A8" stroke-width="2" stroke-linecap="round" stroke-linejoin="round"/></g></g><g id="4fKc9AbWbFs"><g transform="translate(1470 130)"><rect x="0" y="0" width="100" height="50" fill="rgb(113,191,133)" stroke="#71BF85" stroke-width="2" stroke-linecap="round" stroke-linejoin="round" stroke-dasharray="0 0"/></g><g transform="translate(1500, 145.5) rotate(0, 20, 9.5)" width="40" height="19"><text text-decoration="none" x="0" fill="rgb(97, 114, 130)" font-size="10pt" font-family="lt_regular"  y="15">Person</text><text text-decoration="none" x="40" fill="#4b4b4b" font-size="10pt" font-family="noto_regular"  y="15"></text></g></g><g id="7rvqKeyviUi"><g><path d="M 1180,155 L 1470,155" fill="none" stroke="#7E7E7E" stroke-width="2" stroke-linecap="round" stroke-linejoin="round"/></g></g><g id="5ASgxWTV4Qp"><g transform="translate(1300 70)"><ellipse cx="50" cy="25" rx="50" ry="25" fill="rgb(108,107,110)" stroke="#6c6b6e" stroke-width="2" stroke-linecap="round" stroke-linejoin="round" stroke-dasharray="0 0"/></g><g transform="translate(1322, 85.5) rotate(0, 28, 9.5)" width="56" height="19"><text text-decoration="none" x="0.5" fill="#ffffff" font-size="10pt" font-family="lt_regular"  y="15">Password</text><text text-decoration="none" x="55.5" fill="#4b4b4b" font-size="10pt" font-family="noto_regular"  y="15"></text></g></g><g id="JMr3e3O5tY8"><g><path d="M 1470,155 L 1390,110" fill="none" stroke="#A8A8A8" stroke-width="2" stroke-linecap="round" stroke-linejoin="round"/></g></g><g id="YWoThrzuC8B"><g transform="translate(1320 0)"><ellipse cx="50" cy="25" rx="50" ry="25" fill="rgb(108,107,110)" stroke="#6c6b6e" stroke-width="2" stroke-linecap="round" stroke-linejoin="round" stroke-dasharray="0 0"/></g><g transform="translate(1337.5, 15.5) rotate(0, 32.5, 9.5)" width="65" height="19"><text text-decoration="none" x="0" fill="#ffffff" font-size="10pt" font-family="lt_regular"  y="15">User_name</text><text text-decoration="none" x="65" fill="#4b4b4b" font-size="10pt" font-family="noto_regular"  y="15"></text></g></g><g id="ym5yusPn7hY"><g><path d="M 1470,155 L 1410,40" fill="none" stroke="#A8A8A8" stroke-width="2" stroke-linecap="round" stroke-linejoin="round"/></g></g><g id="zqogPQ2JjEP"><g transform="translate(1380 -80)"><ellipse cx="50" cy="25" rx="50" ry="25" fill="rgb(108,107,110)" stroke="#6c6b6e" stroke-width="2" stroke-linecap="round" stroke-linejoin="round" stroke-dasharray="0 0"/></g><g transform="translate(1411.5, -64.5) rotate(0, 18.5, 9.5)" width="37" height="19"><text text-decoration="none" x="0.5" fill="rgb(97, 114, 130)" font-size="10pt" font-family="lt_regular"  y="15">Phone</text><text text-decoration="none" x="36.5" fill="#4b4b4b" font-size="10pt" font-family="noto_regular"  y="15"></text></g></g><g id="LrI7fxdKIEJ"><g><path d="M 1520,130 L 1450,-32" fill="none" stroke="#A8A8A8" stroke-width="2" stroke-linecap="round" stroke-linejoin="round"/></g></g><g id="vlU6uWrbZgb"><g transform="translate(1460 -130)"><ellipse cx="50" cy="25" rx="50" ry="25" fill="rgb(108,107,110)" stroke="#6c6b6e" stroke-width="2" stroke-linecap="round" stroke-linejoin="round" stroke-dasharray="0 0"/></g><g transform="translate(1494.5, -114.5) rotate(0, 15.5, 9.5)" width="31" height="19"><text text-decoration="none" x="0" fill="rgb(97, 114, 130)" font-size="10pt" font-family="lt_regular"  y="15">Email</text><text text-decoration="none" x="31" fill="#4b4b4b" font-size="10pt" font-family="noto_regular"  y="15"></text></g></g><g id="8bcTUCraHcH"><g><path d="M 1520,130 L 1510,-80" fill="none" stroke="#A8A8A8" stroke-width="2" stroke-linecap="round" stroke-linejoin="round"/></g></g><g id="b3egVgRVIly"><g transform="translate(1620 -100)"><ellipse cx="50" cy="25" rx="50" ry="25" fill="rgb(108,107,110)" stroke="#6c6b6e" stroke-width="2" stroke-linecap="round" stroke-linejoin="round" stroke-dasharray="0 0"/></g><g transform="translate(1652.5, -84.5) rotate(0, 17.5, 9.5)" width="35" height="19"><text text-decoration="none" x="0.5" fill="#ffffff" font-size="10pt" font-family="lt_regular"  y="15">Name</text><text text-decoration="none" x="34.5" fill="#4b4b4b" font-size="10pt" font-family="noto_regular"  y="15"></text></g></g><g id="gCBkknHhiU5"><g><path d="M 1520,130 L 1630,-60" fill="none" stroke="#A8A8A8" stroke-width="2" stroke-linecap="round" stroke-linejoin="round"/></g></g><g id="Pa3MI9IdxrV"><g transform="translate(1610 -190)"><ellipse cx="50" cy="25" rx="50" ry="25" fill="rgb(108,107,110)" stroke="#6c6b6e" stroke-width="2" stroke-linecap="round" stroke-linejoin="round" stroke-dasharray="0 0"/></g><g transform="translate(1637, -174.5) rotate(0, 23, 9.5)" width="46" height="19"><text text-decoration="none" x="1" fill="#ffffff" font-size="10pt" font-family="lt_regular"  y="15">F_name</text><text text-decoration="none" x="45" fill="#4b4b4b" font-size="10pt" font-family="noto_regular"  y="15"></text></g></g><g id="twiWqIpEHWy"><g><path d="M 1670,-100 L 1660,-140" fill="none" stroke="#6c6b6e" stroke-width="2" stroke-linecap="round" stroke-linejoin="round" stroke-dasharray="0 0"/></g></g><g id="k84KMgoP2Ot"><g transform="translate(1720 -170)"><ellipse cx="50" cy="25" rx="50" ry="25" fill="rgb(108,107,110)" stroke="#6c6b6e" stroke-width="2" stroke-linecap="round" stroke-linejoin="round" stroke-dasharray="0 0"/></g><g transform="translate(1754.5, -154.5) rotate(0, 15.5, 9.5)" width="31" height="19"><text text-decoration="none" x="0.5" fill="#ffffff" font-size="10pt" font-family="lt_regular"  y="15">Minit</text><text text-decoration="none" x="30.5" fill="#4b4b4b" font-size="10pt" font-family="noto_regular"  y="15"></text></g></g><g id="aAraiGsZFXo"><g><path d="M 1710,-90 L 1730,-130" fill="none" stroke="#6c6b6e" stroke-width="2" stroke-linecap="round" stroke-linejoin="round" stroke-dasharray="0 0"/></g></g><g id="EcM3ntILAvH"><g transform="translate(1810 -120)"><ellipse cx="50" cy="25" rx="50" ry="25" fill="rgb(108,107,110)" stroke="#6c6b6e" stroke-width="2" stroke-linecap="round" stroke-linejoin="round" stroke-dasharray="0 0"/></g><g transform="translate(1837.5, -104.5) rotate(0, 22.5, 9.5)" width="45" height="19"><text text-decoration="none" x="0.5" fill="#ffffff" font-size="10pt" font-family="lt_regular"  y="15">L_name</text><text text-decoration="none" x="44.5" fill="#4b4b4b" font-size="10pt" font-family="noto_regular"  y="15"></text></g></g><g id="YECjKNu0Vew"><g><path d="M 1720,-75 L 1810,-95" fill="none" stroke="#A8A8A8" stroke-width="2" stroke-linecap="round" stroke-linejoin="round"/></g></g><g id="9FyWWWDV1xP"><g transform="translate(1650 40)"><ellipse cx="50" cy="25" rx="50" ry="25" fill="rgb(108,107,110)" stroke="#6c6b6e" stroke-width="2" stroke-linecap="round" stroke-linejoin="round" stroke-dasharray="0 0"/></g><g transform="translate(1676.5, 55.5) rotate(0, 23.5, 9.5)" width="47" height="19"><text text-decoration="none" x="0" fill="#ffffff" font-size="10pt" font-family="lt_regular"  y="15">Address</text><text text-decoration="none" x="47" fill="#4b4b4b" font-size="10pt" font-family="noto_regular"  y="15"></text></g></g><g id="sCiM8XoDZwt"><g><path d="M 1570,155 L 1660,80" fill="none" stroke="#A8A8A8" stroke-width="2" stroke-linecap="round" stroke-linejoin="round"/></g></g><g id="5nfrfR3BBqS"><g transform="translate(1740 -10)"><ellipse cx="50" cy="25" rx="50" ry="25" fill="rgb(108,107,110)" stroke="#6c6b6e" stroke-width="2" stroke-linecap="round" stroke-linejoin="round" stroke-dasharray="0 0"/></g><g transform="translate(1778, 5.5) rotate(0, 12, 9.5)" width="24" height="19"><text text-decoration="none" x="0" fill="#ffffff" font-size="10pt" font-family="lt_regular"  y="15">City</text><text text-decoration="none" x="24" fill="#4b4b4b" font-size="10pt" font-family="noto_regular"  y="15"></text></g></g><g id="s2ZwJNBLgqf"><g><path d="M 1740,50 L 1750,30" fill="none" stroke="#A8A8A8" stroke-width="2" stroke-linecap="round" stroke-linejoin="round"/></g></g><g id="mjlWGmbrWNf"><g transform="translate(1810 50)"><ellipse cx="50" cy="25" rx="50" ry="25" fill="rgb(108,107,110)" stroke="#6c6b6e" stroke-width="2" stroke-linecap="round" stroke-linejoin="round" stroke-dasharray="0 0"/></g><g transform="translate(1840, 65.5) rotate(0, 20, 9.5)" width="40" height="19"><text text-decoration="none" x="0.5" fill="#ffffff" font-size="10pt" font-family="lt_regular"  y="15">Region</text><text text-decoration="none" x="39.5" fill="#4b4b4b" font-size="10pt" font-family="noto_regular"  y="15"></text></g></g><g id="xH7HeToCDbS"><g><path d="M 1750,65 L 1810,75" fill="none" stroke="#A8A8A8" stroke-width="2" stroke-linecap="round" stroke-linejoin="round"/></g></g><g id="zdsZqZbUNib"><g transform="translate(1070 130)"><rect x="0" y="0" width="100" height="50" fill="rgb(113,191,133)" stroke="#71BF85" stroke-width="2" stroke-linecap="round" stroke-linejoin="round" stroke-dasharray="0 0"/></g><g transform="translate(1096, 145.5) rotate(0, 24, 9.5)" width="48" height="19"><text text-decoration="none" x="1" fill="rgb(97, 114, 130)" font-size="10pt" font-family="lt_regular"  y="15">Supplier</text><text text-decoration="none" x="47" fill="#4b4b4b" font-size="10pt" font-family="noto_regular"  y="15"></text></g></g><g id="2sJzUkPbRtd"><mask id="455f8" x="866" y="141" width="218" height="28" maskUnits="userSpaceOnUse"><rect x="866" y="141" width="218" height="28" fill="white" /><rect x="968" y="142.5" width="14" height="25" fill="black" /></mask><g mask="url(#455f8)"><path d="M 880,155 L 1070,155" fill="none" stroke="#7E7E7E" stroke-width="2" stroke-linecap="round" stroke-linejoin="round"/></g><g transform="translate(971, 145.5)" width="8" height="19"><text text-decoration="none" x="0" fill="#4b4b4b" font-size="10pt" font-family="lt_regular"  y="15">1</text><text text-decoration="none" x="8" fill="#4b4b4b" font-size="10pt" font-family="noto_regular"  y="15"></text></g></g><g id="GEdlhPFpxI2"><g transform="translate(1780 120)"><ellipse cx="50" cy="25" rx="50" ry="25" fill="rgb(108,107,110)" stroke="#6c6b6e" stroke-width="2" stroke-linecap="round" stroke-linejoin="round" stroke-dasharray="0 0"/></g><g transform="translate(1792, 135.5) rotate(0, 38, 9.5)" width="76" height="19"><text text-decoration="none" x="0" fill="#ffffff" font-size="10pt" font-family="lt_regular"  y="15">Street_Name</text><text text-decoration="none" x="76" fill="#4b4b4b" font-size="10pt" font-family="noto_regular"  y="15"></text></g></g><g id="pgkhQft68Ra"><g><path d="M 1740,80 L 1790,130" fill="none" stroke="#A8A8A8" stroke-width="2" stroke-linecap="round" stroke-linejoin="round"/></g></g><g id="Po7ebG9oWQk"><g transform="translate(1470 260)"><rect x="0" y="0" width="100" height="50" fill="rgb(113,191,133)" stroke="#71BF85" stroke-width="2" stroke-linecap="round" stroke-linejoin="round" stroke-dasharray="0 0"/></g><g transform="translate(1492.5, 275.5) rotate(0, 27.5, 9.5)" width="55" height="19"><text text-decoration="none" x="0.5" fill="rgb(97, 114, 130)" font-size="10pt" font-family="lt_regular"  y="15">customer</text><text text-decoration="none" x="54.5" fill="#4b4b4b" font-size="10pt" font-family="noto_regular"  y="15"></text></g></g><g id="zbeDQtc68Aj"><g><path d="M 1520,180 L 1520,260" fill="none" stroke="#A8A8A8" stroke-width="2" stroke-linecap="round" stroke-linejoin="round"/><path d="M 1525.75,260 L 1520,250 L 1514.25,260 M 1520,250 Z" fill="none" stroke="#A8A8A8" stroke-width="2" stroke-linecap="round" stroke-linejoin="round"/></g></g><g id="7OrlVctbUoG"><g transform="translate(1690 340)"><ellipse cx="61" cy="25" rx="61" ry="25" fill="rgb(108,107,110)" stroke="#6c6b6e" stroke-width="2" stroke-linecap="round" stroke-linejoin="round" stroke-dasharray="0 0"/></g><g transform="translate(1700, 355.5) rotate(0, 51, 9.5)" width="102" height="19"><text text-decoration="none" x="1" fill="rgb(97, 114, 130)" font-size="10pt" font-family="lt_regular"  y="15">Credit_Card_num</text><text text-decoration="none" x="101" fill="#4b4b4b" font-size="10pt" font-family="noto_regular"  y="15"></text></g></g><g id="p9S11rF6rNM"><g><path d="M 1570,285 L 1699,348" fill="none" stroke="#A8A8A8" stroke-width="2" stroke-linecap="round" stroke-linejoin="round"/></g></g><g id="2NAL1gnTvbw"><g transform="translate(1250 250)"><path d="M 120,35 L 60,70 L 0,35 L 60,0 L 120,35 L 120,35 Z" fill="rgb(45,148,228)" stroke="#2D94E4" stroke-width="2" stroke-linecap="round" stroke-linejoin="round" stroke-dasharray="0 0"/></g><g transform="translate(1291.5, 275.5) rotate(0, 18.5, 9.5)" width="37" height="19"><text text-decoration="none" x="0" fill="rgb(97, 114, 130)" font-size="10pt" font-family="lt_regular"  y="15">orders</text><text text-decoration="none" x="37" fill="#4b4b4b" font-size="10pt" font-family="noto_regular"  y="15"></text></g></g><g id="nHpZM3XAfsN"><mask id="e9d5e" x="1356" y="271" width="128" height="28" maskUnits="userSpaceOnUse"><rect x="1356" y="271" width="128" height="28" fill="white" /><rect x="1413" y="272.5" width="14" height="25" fill="black" /></mask><g mask="url(#e9d5e)"><path d="M 1470,285 L 1370,285" fill="none" stroke="#A8A8A8" stroke-width="2" stroke-linecap="round" stroke-linejoin="round"/></g><g transform="translate(1416, 275.5)" width="8" height="19"><text text-decoration="none" x="0" fill="#4b4b4b" font-size="10pt" font-family="lt_regular"  y="15">1</text><text text-decoration="none" x="8" fill="#4b4b4b" font-size="10pt" font-family="noto_regular"  y="15"></text></g></g><g id="SYJy9XzLuj6"><g transform="translate(1019.9999999999999 259.9999999999999)"><rect x="0" y="0" width="100" height="50" fill="rgb(113,191,133)" stroke="#71BF85" stroke-width="2" stroke-linecap="round" stroke-linejoin="round" stroke-dasharray="0 0"/></g><g transform="translate(1054.5, 275.4999999999999) rotate(0, 15.5, 9.5)" width="31" height="19"><text text-decoration="none" x="0" fill="rgb(97, 114, 130)" font-size="10pt" font-family="lt_regular"  y="15">order</text><text text-decoration="none" x="31" fill="#4b4b4b" font-size="10pt" font-family="noto_regular"  y="15"></text></g></g><g id="21NgTzc6pN9"><mask id="db412" x="1106" y="271" width="158" height="28" maskUnits="userSpaceOnUse"><rect x="1106" y="271" width="158" height="28" fill="white" /><rect x="1177" y="272.49999999999994" width="16" height="25" fill="black" /></mask><g mask="url(#db412)"><path d="M 1250,285 L 1195,285 Q 1195,285 1185,285 Q 1175,284.9999999999999 1175,284.9999999999999 L 1120,285" fill="none" stroke="#7E7E7E" stroke-width="2" stroke-linecap="round" stroke-linejoin="round"/></g><g transform="translate(1180, 275.49999999999994)" width="10" height="19"><text text-decoration="none" x="0" fill="#4b4b4b" font-size="10pt" font-family="lt_regular"  y="15">N</text><text text-decoration="none" x="10" fill="#4b4b4b" font-size="10pt" font-family="noto_regular"  y="15"></text></g></g><g id="76VrBPb6MwR"><g transform="translate(1170 370)"><ellipse cx="50" cy="25" rx="50" ry="25" fill="rgb(108,107,110)" stroke="#6c6b6e" stroke-width="2" stroke-linecap="round" stroke-linejoin="round" stroke-dasharray="0 0"/></g><g transform="translate(1182, 385.5) rotate(0, 38, 9.5)" width="76" height="19"><text text-decoration="none" x="0.5" fill="#ffffff" font-size="10pt" font-family="lt_regular"  y="15">Order_status</text><text text-decoration="none" x="75.5" fill="#4b4b4b" font-size="10pt" font-family="noto_regular"  y="15"></text></g></g><g id="u8EVNZUsK4s"><g><path d="M 1120,285 L 1180,380" fill="none" stroke="#A8A8A8" stroke-width="2" stroke-linecap="round" stroke-linejoin="round"/></g></g><g id="95cgTjRhvq1"><g transform="translate(1050 350)"><ellipse cx="50" cy="25" rx="50" ry="25" fill="rgb(108,107,110)" stroke="#6c6b6e" stroke-width="2" stroke-linecap="round" stroke-linejoin="round" stroke-dasharray="0 0"/></g><g transform="translate(1067, 365.5) rotate(0, 33, 9.5)" width="66" height="19"><text text-decoration="none" x="0.5" fill="rgb(97, 114, 130)" font-size="10pt" font-family="lt_regular"  y="15">Order_date</text><text text-decoration="none" x="65.5" fill="#4b4b4b" font-size="10pt" font-family="noto_regular"  y="15"></text></g></g><g id="QqgKMD1J8Fu"><g><path d="M 1070,310 L 1080,352" fill="none" stroke="#A8A8A8" stroke-width="2" stroke-linecap="round" stroke-linejoin="round"/></g></g><g id="aezb82szaXP"><g transform="translate(920 370)"><ellipse cx="62" cy="25" rx="62" ry="25" fill="rgb(108,107,110)" stroke="#6c6b6e" stroke-width="2" stroke-linecap="round" stroke-linejoin="round" stroke-dasharray="0 0"/></g><g transform="translate(930, 385.5) rotate(0, 52, 9.5)" width="104" height="19"><text text-decoration="none" x="1" fill="#ffffff" font-size="10pt" font-family="lt_regular"  y="15">Payment_Method</text><text text-decoration="none" x="103" fill="#4b4b4b" font-size="10pt" font-family="noto_regular"  y="15"></text></g></g><g id="fXqBZjRqc3p"><g><path d="M 1070,310 L 1032,380" fill="none" stroke="#A8A8A8" stroke-width="2" stroke-linecap="round" stroke-linejoin="round"/></g></g><g id="sLdZ8dah0SF"><g transform="translate(880.0000000000003 300)"><ellipse cx="50" cy="25" rx="50" ry="25" fill="rgb(108,107,110)" stroke="#6c6b6e" stroke-width="2" stroke-linecap="round" stroke-linejoin="round" stroke-dasharray="0 0"/></g><g transform="translate(903.0000000000003, 315.5) rotate(0, 27, 9.5)" width="54" height="19"><text text-decoration="none" x="0" fill="rgb(97, 114, 130)" font-size="10pt" font-family="lt_regular"  y="15">Order_ID</text><text text-decoration="none" x="54" fill="#4b4b4b" font-size="10pt" font-family="noto_regular"  y="15"></text></g></g><g id="eA78fJrl5QS"><g><path d="M 1020,285 L 970,310" fill="none" stroke="#A8A8A8" stroke-width="2" stroke-linecap="round" stroke-linejoin="round"/></g></g><g id="RUs185k1dnl"><mask id="32d2e" x="593" y="271" width="441" height="196" maskUnits="userSpaceOnUse"><rect x="593" y="271" width="441" height="196" fill="white" /><rect x="806" y="356.5" width="16" height="25" fill="black" /></mask><g mask="url(#32d2e)"><path d="M 1020,285 L 813.5,285 L 814,369 L 813.5,453 L 607,453" fill="none" stroke="#7E7E7E" stroke-width="2" stroke-linecap="round" stroke-linejoin="round"/></g><g transform="translate(809, 359.5)" width="10" height="19"><text text-decoration="none" x="0" fill="#4b4b4b" font-size="10pt" font-family="lt_regular"  y="15">N</text><text text-decoration="none" x="10" fill="#4b4b4b" font-size="10pt" font-family="noto_regular"  y="15"></text></g></g><g id="D3yruMHuo5O"><g transform="translate(500 420)"><path d="M 120,35 L 60,70 L 0,35 L 60,0 L 120,35 L 120,35 Z" fill="rgb(45,148,228)" stroke="#2D94E4" stroke-width="2" stroke-linecap="round" stroke-linejoin="round" stroke-dasharray="0 0"/></g><g transform="translate(520, 445.5) rotate(0, 40, 9.5)" width="80" height="19"><text text-decoration="none" x="1" fill="rgb(97, 114, 130)" font-size="10pt" font-family="lt_regular"  y="15">Shipment_Via</text><text text-decoration="none" x="79" fill="#4b4b4b" font-size="10pt" font-family="noto_regular"  y="15"></text></g></g><g id="yxB6J3hW642"><g transform="translate(510 630)"><rect x="0" y="0" width="100" height="50" fill="rgb(113,191,133)" stroke="#71BF85" stroke-width="2" stroke-linecap="round" stroke-linejoin="round" stroke-dasharray="0 0"/></g><g transform="translate(532.5, 645.5) rotate(0, 27.5, 9.5)" width="55" height="19"><text text-decoration="none" x="0.5" fill="rgb(97, 114, 130)" font-size="10pt" font-family="lt_regular"  y="15">Shipment</text><text text-decoration="none" x="54.5" fill="#4b4b4b" font-size="10pt" font-family="noto_regular"  y="15"></text></g></g><g id="Vj0iwmoGf2i"><mask id="7220d" x="546" y="476" width="28" height="168" maskUnits="userSpaceOnUse"><rect x="546" y="476" width="28" height="168" fill="white" /><rect x="553" y="547.5" width="14" height="25" fill="black" /></mask><g mask="url(#7220d)"><path d="M 560,490 L 560,630" fill="none" stroke="#7E7E7E" stroke-width="2" stroke-linecap="round" stroke-linejoin="round"/></g><g transform="translate(556, 550.5)" width="8" height="19"><text text-decoration="none" x="0" fill="#4b4b4b" font-size="10pt" font-family="lt_regular"  y="15">1</text><text text-decoration="none" x="8" fill="#4b4b4b" font-size="10pt" font-family="noto_regular"  y="15"></text></g></g><g id="fbE5s0PBkYb"><g transform="translate(290 680)"><ellipse cx="50" cy="25" rx="50" ry="25" fill="rgb(108,107,110)" stroke="#6c6b6e" stroke-width="2" stroke-linecap="round" stroke-linejoin="round" stroke-dasharray="0 0"/></g><g transform="translate(302.5, 695.5) rotate(0, 37.5, 9.5)" width="75" height="19"><text text-decoration="none" x="0.5" fill="#ffffff" font-size="10pt" font-family="lt_regular"  y="15">Shipment_ID</text><text text-decoration="none" x="74.5" fill="#4b4b4b" font-size="10pt" font-family="noto_regular"  y="15"></text></g></g><g id="QgveYz44v2w"><g><path d="M 510,655 L 390,705" fill="none" stroke="#A8A8A8" stroke-width="2" stroke-linecap="round" stroke-linejoin="round"/></g></g><g id="jTvZjlw9a0L"><g transform="translate(390 720)"><ellipse cx="50" cy="25" rx="50" ry="25" fill="rgb(108,107,110)" stroke="#6c6b6e" stroke-width="2" stroke-linecap="round" stroke-linejoin="round" stroke-dasharray="0 0"/></g><g transform="translate(390, 735.5) rotate(0, 50, 9.5)" width="100" height="19"><text text-decoration="none" x="0" fill="#ffffff" font-size="10pt" font-family="lt_regular"  y="15">transporter_Type</text><text text-decoration="none" x="100" fill="#4b4b4b" font-size="10pt" font-family="noto_regular"  y="15"></text></g></g><g id="731ThkNvr8S"><g><path d="M 510,655 L 480,730" fill="none" stroke="#A8A8A8" stroke-width="2" stroke-linecap="round" stroke-linejoin="round"/></g></g><g id="hjeBVxvipdD"><g transform="translate(320 600)"><ellipse cx="50" cy="25" rx="50" ry="25" fill="rgb(108,107,110)" stroke="#6c6b6e" stroke-width="2" stroke-linecap="round" stroke-linejoin="round" stroke-dasharray="0 0"/></g><g transform="translate(330, 615.5) rotate(0, 40, 9.5)" width="80" height="19"><text text-decoration="none" x="1" fill="#ffffff" font-size="10pt" font-family="lt_regular"  y="15">Shipment_Via</text><text text-decoration="none" x="79" fill="#4b4b4b" font-size="10pt" font-family="noto_regular"  y="15"></text></g></g><g id="UqH4P28SuTo"><g><path d="M 510,655 L 420,625" fill="none" stroke="#A8A8A8" stroke-width="2" stroke-linecap="round" stroke-linejoin="round"/></g></g><g id="ivZaOyEbkkI"><g transform="translate(379.9999999999999 819.9999999999999)"><ellipse cx="50" cy="25" rx="50" ry="25" fill="rgb(108,107,110)" stroke="#6c6b6e" stroke-width="2" stroke-linecap="round" stroke-linejoin="round" stroke-dasharray="0 0"/></g><g transform="translate(406.4999999999999, 835.4999999999999) rotate(0, 23.5, 9.5)" width="47" height="19"><text text-decoration="none" x="0" fill="#ffffff" font-size="10pt" font-family="lt_regular"  y="15">Address</text><text text-decoration="none" x="47" fill="#4b4b4b" font-size="10pt" font-family="noto_regular"  y="15"></text></g></g><g id="d8LJr9XgFdq"><g><path d="M 560,680 L 470,830" fill="none" stroke="#A8A8A8" stroke-width="2" stroke-linecap="round" stroke-linejoin="round"/></g></g><g id="Tpb57JzxqDU"><g transform="translate(560.0000000000002 779.9999999999998)"><ellipse cx="49.99999999999999" cy="24.999999999999996" rx="49.99999999999999" ry="24.999999999999996" fill="rgb(108,107,110)" stroke="#6c6b6e" stroke-width="2" stroke-linecap="round" stroke-linejoin="round" stroke-dasharray="0 0"/></g><g transform="translate(585.0000000000002, 795.4999999999998) rotate(0, 25, 9.5)" width="50" height="19"><text text-decoration="none" x="1" fill="#ffffff" font-size="10pt" font-family="lt_regular"  y="15">Location</text><text text-decoration="none" x="49" fill="#4b4b4b" font-size="10pt" font-family="noto_regular"  y="15"></text></g></g><g id="ae4DN2La5EM"><g><path d="M 560,680 L 590,782" fill="none" stroke="#A8A8A8" stroke-width="2" stroke-linecap="round" stroke-linejoin="round"/></g></g><g id="jgF8IeHYBB4"><g transform="translate(650 670)"><ellipse cx="50" cy="25" rx="50" ry="25" fill="rgb(108,107,110)" stroke="#6c6b6e" stroke-width="2" stroke-linecap="round" stroke-linejoin="round" stroke-dasharray="0 0"/></g><g transform="translate(651, 685.5) rotate(0, 49, 9.5)" width="98" height="19"><text text-decoration="none" x="1" fill="#ffffff" font-size="10pt" font-family="lt_regular"  y="15">Shipment_Status</text><text text-decoration="none" x="97" fill="#4b4b4b" font-size="10pt" font-family="noto_regular"  y="15"></text></g></g><g id="YB8BcTXyKYq"><g><path d="M 610,655 L 660,680" fill="none" stroke="#A8A8A8" stroke-width="2" stroke-linecap="round" stroke-linejoin="round"/></g></g><g id="5rWVoZHdgwR"><g transform="translate(290 899.9999999999998)"><ellipse cx="49.999999999999986" cy="24.999999999999993" rx="49.999999999999986" ry="24.999999999999993" fill="rgb(108,107,110)" stroke="#6c6b6e" stroke-width="2" stroke-linecap="round" stroke-linejoin="round" stroke-dasharray="0 0"/></g><g transform="translate(303.5, 915.4999999999998) rotate(0, 36.5, 9.5)" width="73" height="19"><text text-decoration="none" x="0" fill="#ffffff" font-size="10pt" font-family="lt_regular"  y="15">Street_name</text><text text-decoration="none" x="73" fill="#4b4b4b" font-size="10pt" font-family="noto_regular"  y="15"></text></g></g><g id="PilUo6UBZZk"><g><path d="M 390,860 L 380,910" fill="none" stroke="#A8A8A8" stroke-width="2" stroke-linecap="round" stroke-linejoin="round"/></g></g><g id="bLAuapNKkh2"><g transform="translate(340.0000000000002 960.0000000000002)"><ellipse cx="49.999999999999986" cy="24.999999999999993" rx="49.999999999999986" ry="24.999999999999993" fill="rgb(108,107,110)" stroke="#6c6b6e" stroke-width="2" stroke-linecap="round" stroke-linejoin="round" stroke-dasharray="0 0"/></g><g transform="translate(378.0000000000002, 975.5000000000002) rotate(0, 12, 9.5)" width="24" height="19"><text text-decoration="none" x="0" fill="#ffffff" font-size="10pt" font-family="lt_regular"  y="15">City</text><text text-decoration="none" x="24" fill="#4b4b4b" font-size="10pt" font-family="noto_regular"  y="15"></text></g></g><g id="MUyb45gPVVu"><g><path d="M 410,868 L 410,962" fill="none" stroke="#A8A8A8" stroke-width="2" stroke-linecap="round" stroke-linejoin="round"/></g></g><g id="6Lj7vVQ5QIV"><g transform="translate(420.0000000000002 899.9999999999998)"><ellipse cx="49.999999999999986" cy="24.999999999999993" rx="49.999999999999986" ry="24.999999999999993" fill="rgb(108,107,110)" stroke="#6c6b6e" stroke-width="2" stroke-linecap="round" stroke-linejoin="round" stroke-dasharray="0 0"/></g><g transform="translate(450.0000000000002, 915.4999999999998) rotate(0, 20, 9.5)" width="40" height="19"><text text-decoration="none" x="0.5" fill="#ffffff" font-size="10pt" font-family="lt_regular"  y="15">Region</text><text text-decoration="none" x="39.5" fill="#4b4b4b" font-size="10pt" font-family="noto_regular"  y="15"></text></g></g><g id="y6FPuBSRBB1"><g><path d="M 450,868 L 450,902" fill="none" stroke="#A8A8A8" stroke-width="2" stroke-linecap="round" stroke-linejoin="round"/></g></g><g id="zWlPq2NKqeI"><g transform="translate(610 880)"><ellipse cx="49.999999999999986" cy="24.999999999999993" rx="49.999999999999986" ry="24.999999999999993" fill="rgb(108,107,110)" stroke="#6c6b6e" stroke-width="2" stroke-linecap="round" stroke-linejoin="round" stroke-dasharray="0 0"/></g><g transform="translate(623, 895.5) rotate(0, 37, 9.5)" width="74" height="19"><text text-decoration="none" x="1.5" fill="#ffffff" font-size="10pt" font-family="lt_regular"  y="15">x-coordinate</text><text text-decoration="none" x="72.5" fill="#4b4b4b" font-size="10pt" font-family="noto_regular"  y="15"></text></g></g><g id="x0cGrOCjztf"><g><path d="M 630,828 L 640,882" fill="none" stroke="#A8A8A8" stroke-width="2" stroke-linecap="round" stroke-linejoin="round"/></g></g><g id="geccbhdfF2v"><g transform="translate(699.9999999999998 809.9999999999998)"><ellipse cx="49.999999999999986" cy="24.999999999999993" rx="49.999999999999986" ry="24.999999999999993" fill="rgb(108,107,110)" stroke="#6c6b6e" stroke-width="2" stroke-linecap="round" stroke-linejoin="round" stroke-dasharray="0 0"/></g><g transform="translate(712.9999999999998, 825.4999999999998) rotate(0, 37, 9.5)" width="74" height="19"><text text-decoration="none" x="1" fill="#ffffff" font-size="10pt" font-family="lt_regular"  y="15">y-coordinate</text><text text-decoration="none" x="73" fill="#4b4b4b" font-size="10pt" font-family="noto_regular"  y="15"></text></g></g><g id="kClBhZcEsLL"><g><path d="M 660,805 L 700,835" fill="none" stroke="#A8A8A8" stroke-width="2" stroke-linecap="round" stroke-linejoin="round"/></g></g><g id="7Jhl3JKG33f"><g transform="translate(949.9999999999999 620.0000000000001)"><path d="M 120,35 L 60,70 L 0,35 L 60,0 L 120,35 L 120,35 Z" fill="rgb(45,148,228)" stroke="#2D94E4" stroke-width="2" stroke-linecap="round" stroke-linejoin="round" stroke-dasharray="0 0"/></g><g transform="translate(989, 645.5000000000001) rotate(0, 21, 9.5)" width="42" height="19"><text text-decoration="none" x="0" fill="rgb(97, 114, 130)" font-size="10pt" font-family="lt_regular"  y="15">Deliver</text><text text-decoration="none" x="42" fill="#4b4b4b" font-size="10pt" font-family="noto_regular"  y="15"></text></g></g><g id="3qgOitI9wOm"><mask id="4726c" x="596" y="641" width="368" height="28" maskUnits="userSpaceOnUse"><rect x="596" y="641" width="368" height="28" fill="white" /><rect x="772" y="642.5" width="16" height="25" fill="black" /></mask><g mask="url(#4726c)"><path d="M 610,655 L 780,655 Q 789.9999999999999,655.0000000000001 790,655.0000000000001 L 950,655" fill="none" stroke="#7E7E7E" stroke-width="2" stroke-linecap="round" stroke-linejoin="round"/></g><g transform="translate(775, 645.5)" width="10" height="19"><text text-decoration="none" x="0" fill="#4b4b4b" font-size="10pt" font-family="lt_regular"  y="15">N</text><text text-decoration="none" x="10" fill="#4b4b4b" font-size="10pt" font-family="noto_regular"  y="15"></text></g></g><g id="E5YZK4rCpSM"><g transform="translate(1300 630.0000000000001)"><rect x="0" y="0" width="128" height="50" fill="rgb(113,191,133)" stroke="#71BF85" stroke-width="2" stroke-linecap="round" stroke-linejoin="round" stroke-dasharray="0 0"/></g><g transform="translate(1310, 645.5000000000001) rotate(0, 54, 9.5)" width="108" height="19"><text text-decoration="none" x="1" fill="rgb(97, 114, 130)" font-size="10pt" font-family="lt_regular"  y="15">Delivery_company</text><text text-decoration="none" x="107" fill="#4b4b4b" font-size="10pt" font-family="noto_regular"  y="15"></text></g></g><g id="CLd7D55qPoy"><mask id="0d2db" x="1056" y="641" width="258" height="28" maskUnits="userSpaceOnUse"><rect x="1056" y="641" width="258" height="28" fill="white" /><rect x="1178" y="642.5" width="14" height="25" fill="black" /></mask><g mask="url(#0d2db)"><path d="M 1070,655 L 1300,655" fill="none" stroke="#7E7E7E" stroke-width="2" stroke-linecap="round" stroke-linejoin="round"/></g><g transform="translate(1181, 645.5)" width="8" height="19"><text text-decoration="none" x="0" fill="#4b4b4b" font-size="10pt" font-family="lt_regular"  y="15">1</text><text text-decoration="none" x="8" fill="#4b4b4b" font-size="10pt" font-family="noto_regular"  y="15"></text></g></g><g id="XaOYvFhhHRY"><g transform="translate(1470 690)"><ellipse cx="71.5" cy="25" rx="71.5" ry="25" fill="rgb(108,107,110)" stroke="#6c6b6e" stroke-width="2" stroke-linecap="round" stroke-linejoin="round" stroke-dasharray="0 0"/></g><g transform="translate(1480, 705.5) rotate(0, 61.5, 9.5)" width="123" height="19"><text text-decoration="none" x="0.5" fill="#ffffff" font-size="10pt" font-family="lt_regular"  y="15">Delivery_Com_Name</text><text text-decoration="none" x="122.5" fill="#4b4b4b" font-size="10pt" font-family="noto_regular"  y="15"></text></g></g><g id="dN8NxZJUs8d"><g><path d="M 1428,655 L 1470,715" fill="none" stroke="#A8A8A8" stroke-width="2" stroke-linecap="round" stroke-linejoin="round"/></g></g><g id="5hbjyCX6kGR"><g transform="translate(1440 750)"><ellipse cx="50" cy="25" rx="50" ry="25" fill="rgb(108,107,110)" stroke="#6c6b6e" stroke-width="2" stroke-linecap="round" stroke-linejoin="round" stroke-dasharray="0 0"/></g><g transform="translate(1476.5, 765.5) rotate(0, 13.5, 9.5)" width="27" height="19"><text text-decoration="none" x="0.5" fill="#ffffff" font-size="10pt" font-family="lt_regular"  y="15">Mob</text><text text-decoration="none" x="26.5" fill="#4b4b4b" font-size="10pt" font-family="noto_regular"  y="15"></text></g></g><g id="Udcd6tqm7Hc"><g><path d="M 1428,655 L 1470,752" fill="none" stroke="#A8A8A8" stroke-width="2" stroke-linecap="round" stroke-linejoin="round"/></g></g><g id="o4l64t9cBGI"><g transform="translate(1340 800.0000000000001)"><ellipse cx="50" cy="25" rx="50" ry="25" fill="rgb(108,107,110)" stroke="#6c6b6e" stroke-width="2" stroke-linecap="round" stroke-linejoin="round" stroke-dasharray="0 0"/></g><g transform="translate(1374.5, 815.5000000000001) rotate(0, 15.5, 9.5)" width="31" height="19"><text text-decoration="none" x="0" fill="#ffffff" font-size="10pt" font-family="lt_regular"  y="15">Email</text><text text-decoration="none" x="31" fill="#4b4b4b" font-size="10pt" font-family="noto_regular"  y="15"></text></g></g><g id="7WUz6jK1H5E"><g><path d="M 1350,680 L 1370,802" fill="none" stroke="#A8A8A8" stroke-width="2" stroke-linecap="round" stroke-linejoin="round"/></g></g><g id="cgShg1saeGw"><g transform="translate(1120 700.0000000000001)"><ellipse cx="61" cy="25" rx="61" ry="25" fill="rgb(108,107,110)" stroke="#6c6b6e" stroke-width="2" stroke-linecap="round" stroke-linejoin="round" stroke-dasharray="0 0"/></g><g transform="translate(1130, 715.5000000000001) rotate(0, 51, 9.5)" width="102" height="19"><text text-decoration="none" x="0" fill="#ffffff" font-size="10pt" font-family="lt_regular"  y="15">Delivery_Com_ID</text><text text-decoration="none" x="102" fill="#4b4b4b" font-size="10pt" font-family="noto_regular"  y="15"></text></g></g><g id="jtbIRGocc5t"><g><path d="M 1300,655 L 1210,710" fill="none" stroke="#A8A8A8" stroke-width="2" stroke-linecap="round" stroke-linejoin="round"/></g></g><g id="CTmWEZxa2HM"><g transform="translate(1180 760.0000000000001)"><ellipse cx="50" cy="25" rx="50" ry="25" fill="rgb(108,107,110)" stroke="#6c6b6e" stroke-width="2" stroke-linecap="round" stroke-linejoin="round" stroke-dasharray="0 0"/></g><g transform="translate(1204, 775.5000000000001) rotate(0, 26, 9.5)" width="52" height="19"><text text-decoration="none" x="0" fill="#ffffff" font-size="10pt" font-family="lt_regular"  y="15">Adresses</text><text text-decoration="none" x="53" fill="#4b4b4b" font-size="10pt" font-family="noto_regular"  y="15"></text></g></g><g id="EcvCnpQWsdd"><g><path d="M 1300,655 L 1250,762" fill="none" stroke="#A8A8A8" stroke-width="2" stroke-linecap="round" stroke-linejoin="round"/></g></g><g id="06s9oceBnEh"><g transform="translate(610 190)"><path d="M 120,35 L 60,70 L 0,35 L 60,0 L 120,35 L 120,35 Z" fill="rgb(45,148,228)" stroke="#2D94E4" stroke-width="2" stroke-linecap="round" stroke-linejoin="round" stroke-dasharray="0 0"/></g><g transform="translate(634.5, 215.5) rotate(0, 35.5, 9.5)" width="71" height="19"><text text-decoration="none" x="1" fill="rgb(97, 114, 130)" font-size="10pt" font-family="lt_regular"  y="15">Relationship</text><text text-decoration="none" x="70" fill="#4b4b4b" font-size="10pt" font-family="noto_regular"  y="15"></text></g></g><g id="VYHLWi9PbZV"><mask id="9bccd" x="516" y="141" width="108" height="98" maskUnits="userSpaceOnUse"><rect x="516" y="141" width="108" height="98" fill="white" /><rect x="562" y="177.5" width="16" height="25" fill="black" /></mask><g mask="url(#9bccd)"><path d="M 530,155 L 570,155 L 570,190 L 570,225 L 610,225" fill="none" stroke="#7E7E7E" stroke-width="2" stroke-linecap="round" stroke-linejoin="round"/></g><g transform="translate(565, 180.5)" width="10" height="19"><text text-decoration="none" x="0" fill="#4b4b4b" font-size="10pt" font-family="lt_regular"  y="15">N</text><text text-decoration="none" x="10" fill="#4b4b4b" font-size="10pt" font-family="noto_regular"  y="15"></text></g></g><g id="rWER1eYH2p8"><mask id="c9b58" x="716" y="211" width="318" height="88" maskUnits="userSpaceOnUse"><rect x="716" y="211" width="318" height="88" fill="white" />undefined<rect x="853.5" y="212.5" width="14" height="25" fill="black" /></mask><g mask="url(#c9b58)"><path d="M 730,225 L 875,225 L 875,255 L 875,285 L 1020,285" fill="none" stroke="#7E7E7E" stroke-width="2" stroke-linecap="round" stroke-linejoin="round"/></g>undefined<g transform="translate(856.5, 215.5)" width="8" height="19"><text text-decoration="none" x="0" fill="#4b4b4b" font-size="10pt" font-family="lt_regular"  y="15">1</text><text text-decoration="none" x="8" fill="#4b4b4b" font-size="10pt" font-family="noto_regular"  y="15"></text></g></g></svg>